# xmcd
#
# Track frame offsets:
#	182
#	19485
#	33895
#	49670
#	64937
#	80405
#	95315
#	111175
#	124690
#	142857
#	156290
#	171530
#	188902
#	201642
#	219210
#	236420
#
# Disc length: 3324
#
# Revision: 2
# Processed by: cddbd v1.5.1PL0 Copyright (c) Steve Scherf et al.
# Submitted via: audiograbber 1.81.02
# Normalized: r1:DSETVAR1
#
DISCID=df0cfa10
DTITLE=Various Artist - New Country Family
DYEAR=1995
DGENRE=Country
TTITLE0=The Judds - Grandpa (Tell Me 'Bout The Good Old Days)
TTITLE1=John Michael Montgomery - Life's A DAnce
TTITLE2=Holly Dunn - Daddy's Hands
TTITLE3=Michael Martin Murphey - A Long Line Of Love
TTITLE4=Paul Overstreet - Seein' My Father In Me
TTITLE5=The Nitty Gritty Dirt band - Long Hard Road (The Sharecropper's Dream)
TTITLE6=Lionel Cartwright - Like Father Lkie Son
TTITLE7=John Anderson - Black Sheep
TTITLE8=Hank Williams Jr. - Family Tradition
TTITLE9=Hal Ketchum - Small Town Saturday Night
TTITLE10=Joe Diffie - Home
TTITLE11=Ricky Van Shelton - Keep It Between The Lines
TTITLE12=Eddie Raven - Bayou Boys
TTITLE13=Collin Raye - Love, Me
TTITLE14=Doug Supernaw - I Don't Call Him Daddy
TTITLE15=Randy Travis - Heroes And Friends
EXTD=
EXTT0=
EXTT1=
EXTT2=
EXTT3=
EXTT4=
EXTT5=
EXTT6=
EXTT7=
EXTT8=
EXTT9=
EXTT10=
EXTT11=
EXTT12=
EXTT13=
EXTT14=
EXTT15=
PLAYORDER=
